<svg width="20" height="20" viewBox="0 0 20 20" fill="none" xmlns="http://www.w3.org/2000/svg">
<g clip-path="url(#clip0_1_22)">
<path d="M8.84077 0C10.251 0 11.5928 0.323103 12.7969 0.901077C12.9857 0.986269 13.1758 1.08823 13.364 1.19028L12.5384 1.92159L11.3007 0.646297L9.16803 2.51651L7.91215 1.17307L3.99049 4.65889L6.50126 7.39646L5.52109 8.24641L7.99822 10.984L7.01796 11.8336L10.5613 15.7274L12.6585 13.823L14.4826 15.8639C14.1211 16.136 13.7255 16.4086 13.296 16.6462C11.9886 17.3773 10.4747 17.8016 8.85815 17.8016C3.88692 17.8016 -0.154446 13.8066 -0.154446 8.89314C-0.172001 4.01286 3.87008 0 8.84077 0ZM7.18931 8.34864L9.33938 6.44418L11.2662 8.56952L9.11568 10.4738L7.18931 8.34864ZM8.72054 12.0214L10.8531 10.1001L12.7969 12.2253L10.6467 14.1298L8.72054 12.0214ZM5.65943 4.72713L7.80886 2.82267L9.73523 4.948L7.58507 6.85238L5.65943 4.72713ZM9.59742 3.70661L11.1971 2.27842L12.6423 3.85978L11.0426 5.30484L9.59742 3.70661ZM12.4529 10.2528L14.0521 8.82456L15.4972 10.4224L13.8974 11.8516L12.4529 10.2528ZM13.8631 13.4668L15.4629 12.0382L16.9068 13.6195L15.3077 15.0644L13.8631 13.4668ZM14.5168 6.12107L15.5831 5.16879L16.546 6.22339L15.4799 7.17531L14.5168 6.12107ZM13.1408 2.97548L14.2071 2.00651L15.1707 3.07753L14.1036 4.02972L13.1408 2.97548ZM15.8755 9.26693L16.9417 8.31474L17.9221 9.36899L16.8389 10.3209L15.8755 9.26693ZM11.0768 6.90341L12.6766 5.47513L14.1211 7.05614L12.522 8.48469L11.0768 6.90341Z" fill="#3E9CDC"/>
</g>
<defs>
<clipPath id="clip0_1_22">
<rect width="20" height="20" fill="white"/>
</clipPath>
</defs>
</svg>
