<svg width="20" height="20" viewBox="0 0 20 20" fill="none" xmlns="http://www.w3.org/2000/svg">
<path d="M14.4554 8.14287C14.4554 8.07144 14.4196 7.99108 14.3661 7.93751L13.9196 7.49108C13.8661 7.43751 13.7857 7.40179 13.7143 7.40179C13.6429 7.40179 13.5625 7.43751 13.5089 7.49108L10 11L6.49108 7.49108C6.4375 7.43751 6.35715 7.40179 6.28572 7.40179C6.20536 7.40179 6.13393 7.43751 6.08036 7.49108L5.63393 7.93751C5.58036 7.99108 5.54465 8.07144 5.54465 8.14287C5.54465 8.21429 5.58036 8.29465 5.63393 8.34822L9.79465 12.5089C9.84822 12.5625 9.92858 12.5982 10 12.5982C10.0714 12.5982 10.1518 12.5625 10.2054 12.5089L14.3661 8.34822C14.4196 8.29465 14.4554 8.21429 14.4554 8.14287Z" fill="black"/>
</svg>
