<svg width="14" height="18" viewBox="0 0 14 18" fill="none" xmlns="http://www.w3.org/2000/svg">
<path fill-rule="evenodd" clip-rule="evenodd" d="M0.000207484 8.92879C0.000207484 7.91807 0.0856586 7.27664 2.19641 5.71416C3.94389 4.42055 9.54517 0 9.54517 0V7.37931H13.8048V18H1.33064C0.59892 18 0 17.4061 0 16.6804L0.000207484 8.92886V8.92879Z" fill="#3E9CDC"/>
<path fill-rule="evenodd" clip-rule="evenodd" d="M9.54517 7.37921V11.655L1.7178 16.943L11.6141 13.7499V7.37921H9.54517Z" fill="black" fill-opacity="0.2"/>
<path fill-rule="evenodd" clip-rule="evenodd" d="M5.96821 7.15823C6.42598 6.61735 7.09448 6.42645 7.46155 6.73187C7.82862 7.03735 7.75524 7.72348 7.29747 8.26437C6.84005 8.80518 6.17128 8.99588 5.8042 8.69039C5.43713 8.38497 5.51071 7.69898 5.96821 7.15817V7.15823Z" fill="#231F20"/>
</svg>
