<svg width="20" height="21" viewBox="0 0 20 21" fill="none" xmlns="http://www.w3.org/2000/svg">
<path d="M16.4115 13.4649C16.4716 13.8527 16.3447 14.0168 16.2164 14.0168C16.0881 14.0168 15.9024 13.8591 15.6953 13.5464C15.4882 13.2336 15.4174 12.8859 15.5176 12.7075C15.5553 12.6458 15.6162 12.6004 15.6876 12.5809C15.7591 12.5614 15.8355 12.5693 15.9011 12.6029C16.2418 12.7269 16.3754 13.2323 16.4115 13.4649ZM14.5235 14.3154C14.9337 14.6501 15.0579 15.0482 14.8415 15.3287C14.7756 15.4071 14.6915 15.4695 14.5962 15.5108C14.5008 15.5521 14.3967 15.5711 14.2923 15.5665C14.0635 15.5668 13.8417 15.4895 13.6657 15.3481C13.2942 15.034 13.1847 14.5235 13.4278 14.234C13.4816 14.1745 13.5486 14.1278 13.6239 14.0973C13.6992 14.0669 13.7806 14.0535 13.8621 14.0582C14.107 14.066 14.3411 14.1571 14.5235 14.3154ZM13.8394 17.5465C15.6018 17.5465 17.5138 18.1307 19.6316 19.9454C19.8427 20.1263 20.1246 19.9014 19.9402 19.6752C17.8599 17.1355 15.9318 16.6509 14.0171 16.2424C11.6708 15.741 10.4629 14.4627 9.61714 13.0604C9.45012 12.7812 9.37396 12.8303 9.35927 13.1896C9.34522 13.7222 9.38686 14.2549 9.48353 14.7794C9.38866 14.7794 9.29246 14.7794 9.19759 14.7794C7.99518 14.7794 6.81978 14.4345 5.82001 13.7883C4.82025 13.1421 4.04102 12.2237 3.58088 11.1491C3.12074 10.0745 3.00035 8.89212 3.23492 7.75137C3.4695 6.61063 4.04852 5.56278 4.89875 4.74035C5.74898 3.91791 6.83224 3.35783 8.01154 3.13092C9.19085 2.90401 10.4132 3.02047 11.5241 3.46557C12.635 3.91066 13.5845 4.66441 14.2525 5.63149C14.9205 6.59857 15.2771 7.73555 15.2771 8.89865C15.2777 9.12708 15.2647 9.35536 15.2383 9.58236C14.5979 9.50435 13.9506 9.49265 13.3076 9.54747C13.0764 9.56685 13.1098 9.67671 13.2835 9.70127C15.2878 10.0515 16.6747 11.2522 16.99 13.443C16.9912 13.4541 16.9959 13.4645 17.0035 13.4729C17.0112 13.4812 17.0213 13.487 17.0326 13.4895C17.0438 13.4919 17.0556 13.4908 17.0662 13.4864C17.0768 13.482 17.0857 13.4745 17.0916 13.4649C18.1342 11.7791 18.5706 9.80682 18.3329 7.85583C18.0951 5.90484 17.1966 4.08482 15.7773 2.67963C14.3581 1.27445 12.498 0.363134 10.4871 0.0878204C8.47627 -0.187493 6.42776 0.188682 4.66112 1.15767C2.89447 2.12666 1.50903 3.63397 0.720884 5.4445C-0.0672582 7.25503 -0.213781 9.26697 0.304171 11.1665C0.822122 13.066 1.97542 14.7463 3.58418 15.9453C5.19294 17.1443 7.1667 17.7946 9.19759 17.7947C10.5404 17.7986 11.8779 17.5452 13.8394 17.5452V17.5465Z" fill="#3E9CDC"/>
</svg>
